<?xml version="1.0" encoding="UTF-8" standalone="no"?>
<svg xmlns="http://www.w3.org/2000/svg" version="1.1" width="512" height="128" viewBox="0 0 512 128" id="XR4HUMAN">
	<title>XR4HUMAN Logo Horizontal Light</title>
	<g id="Logo">
		<path id="XR4" fill="#003670" d="m141.71 31.344c-1.7431 0-3.1695 0.60587-4.242 1.8047-0.98787 1.1048-1.567 2.4243-1.7226 3.918-0.16547 1.5649 0.24448 3.019 1.2068 4.2988l19.957 27.686-21.158 28.211c-0.94246 1.2572-1.4215 2.6737-1.4215 4.2127 0 1.5652 0.49269 2.9555 1.4644 4.125 1.037 1.2572 2.5244 1.8949 4.4162 1.8949 1.7107 0 3.1944-0.61959 4.4162-1.8383l20.447-27.185 19.256 26.688c0.63452 0.79689 1.3599 1.3922 2.1599 1.7711 0.78756 0.37263 1.7114 0.56485 2.7384 0.56485 1.8078 0 3.2666-0.60964 4.3359-1.8047 1.0078-1.1278 1.5571-2.5058 1.6348-4.1002 0.0778-1.5938-0.36516-3.0476-1.3045-4.3042l-20.361-28.276 19.289-25.721h18.445c2.6078 0 4.9282 0.53879 6.8883 1.6016 1.9378 1.053 3.4799 2.5408 4.5879 4.42 1.1086 1.889 1.6722 4.0955 1.6722 6.5644 0 2.2323-0.53873 4.1657-1.6467 5.9121-1.098 1.7302-2.6383 3.097-4.5723 4.0625-1.9701 0.98495-4.3017 1.4883-6.9294 1.4883h-16.994c-1.8569 0-3.483 0.55403-4.8342 1.6524-1.4221 1.1535-2.1717 2.6458-2.1717 4.3242 0 2.7928 1.2703 4.1456 2.3397 4.7871v0.0058c1.312 0.78731 2.8834 1.1895 4.6619 1.1895h6.8597v-0.01369h10.134c0.31105 0 0.6196-6e-3 0.92442-0.0098l15.629 25.178c0.63514 1.037 1.4457 1.8165 2.3981 2.3123 0.92691 0.48647 1.9633 0.73282 3.0743 0.73282 3.2243 0 4.7894-1.7356 5.5316-3.1938 0.72535-1.4283 1.2286-3.7257-0.52753-6.5543l-13.461-21.67c3.651-1.9764 6.5549-4.6942 8.6383-8.0898 2.1642-3.5348 3.2641-7.6064 3.2641-12.113 0-4.805-1.0955-9.0965-3.2504-12.748-2.1611-3.6515-5.2081-6.5626-9.0507-8.6523-3.8264-2.0769-8.2538-3.1309-13.166-3.1309h-21.316c-0.0355 0-0.0722 0.0059-0.10762 0.0059-0.0168 0-0.0317-0.0059-0.051-0.0059-1.8563 0-3.3866 0.63278-4.5468 1.877l-19.902 26.461-18.977-26.332c-0.98165-1.3317-2.5468-2.0059-4.6563-2.0059zm141.82 0c-1.0656 0-2.0498 0.2556-2.9313 0.75781-0.81679 0.46656-1.5421 1.0923-2.1742 1.8828l-35.916 47.074c-0.90015 1.2279-1.2927 2.6178-1.1695 4.1309 0.11944 1.4904 0.70918 2.8164 1.7462 3.9277 1.0949 1.1858 2.5953 1.7871 4.4548 1.7871h29.741v10.336c0 1.6914 0.57294 3.1664 1.707 4.3813 1.1596 1.2404 2.5928 1.8731 4.2613 1.8731 1.7922 0 3.2921-0.63266 4.4554-1.8731 1.1341-1.2187 1.707-2.693 1.707-4.3813v-10.336h4.1505c1.6784 0 3.1459-0.55266 4.3614-1.6445 1.2535-1.1308 1.8924-2.5238 1.8924-4.1406 0-2.1416-0.69549-3.6879-2.0628-4.6016-1.1826-0.78737-2.5904-1.1856-4.191-1.1856h-4.1505v-41.641c0-1.7301-0.53189-3.2218-1.5782-4.4336-1.0886-1.2539-2.576-1.9141-4.303-1.9141zm-6.2494 22.793v25.195h-19.153z"/>
		<path id="HUMAN" fill="#790090" d="m449.87 66.4-17.777 41.709h5.0955l3.5452-8.3303h20.014l3.5409 8.3303h5.1621l-17.779-41.709zm-59.359 0.0039v41.705h4.8498v-29.524l13.178 17.898h1.7381l13.117-17.836v29.461h4.846v-41.705h-1.6778l-17.217 23.742-17.092-23.742zm82.791 0v41.705h4.8473v-30.828l26.106 31.511h1.7418v-41.705h-4.8498v30.891l-26.105-31.574zm-162.16 0.68355v41.022h4.8498v-19.768h22.998v19.768h4.8479v-41.022h-4.8479v16.906h-22.998v-16.906zm39.719 0v24.738c0 5.3429 1.5123 9.5084 4.535 12.492 3.0264 2.9835 6.9636 4.474 11.811 4.474 4.7658 0 8.6613-1.4986 11.687-4.5058 3.0233-3.0034 4.535-7.1571 4.535-12.461v-24.738h-4.8473v25.049c0 3.9754-1.0563 7.0019-3.172 9.0722-2.1126 2.0734-4.8466 3.1098-8.2028 3.1098-3.3991 0-6.1617-1.0364-8.2974-3.1098-2.135-2.0703-3.2012-5.0967-3.2012-9.0722v-25.049zm99.881 8.2032 8.2034 20.137h-16.408z" />
		<path id="VirtualFace" fill="#003670" fill-rule="evenodd" d="m49.021 55.751c0 2.8998-2.3685 5.2682-5.2682 5.2682h-8.1876c-2.8998 0-5.2651-2.3685-5.2651-5.2682v-8.1876c0-2.8998 2.3652-5.265 5.2651-5.265h8.1876c2.8997 0 5.2682 2.3652 5.2682 5.265zm33.943-44.797h-12.079c-1.9051 0-3.4603 1.5552-3.4603 3.4603v6.0394c0 10.621 0.64802 9.422-14.642 9.422h-17.098c-11.917 0-21.666 9.7525-21.666 21.669v5.7445l-8.019 14.729 8.019 2.0056v16.304c0 2.7411 2.2421 4.9831 4.9831 4.9831h13.767c-0.21381-0.44728-0.33698-0.9493-0.33698-1.4774v-12.075c0-1.9084 1.5552-3.4636 3.4636-3.4636h11.301c1.9051 0 3.4636-1.5552 3.4636-3.4636v-9.4932c0-1.9084 1.5552-3.4636 3.4603-3.4636h5.1775c10.307 0 8.3593 1.3803 8.3593-9.2405v-6.0362c0-0.14899 0.01306-0.29481 0.03235-0.44062v-2.4462c0-0.06799 0.01-0.13605 0.01-0.20411v-5.1775c0-0.56379 0-1.0886-0.01-1.5844v-0.47627c0-0.12964-0.0081-0.25922-0.01555-0.38557-0.12635-7.5395-0.43092-5.926 9.2502-5.926h6.0394c1.9084 0 3.4636-1.5584 3.4636-3.4636v-12.079c0-1.9051-1.5552-3.4603-3.4636-3.4603"/>
		<path id="RealFace" fill="#790090" d="m85.553 44.064c0.68044 0.63509 1.1074 1.5321 1.1074 2.5332v12.076c0 1.9051-1.5545 3.4629-3.4629 3.4629h-6.0371c-10.618 0-9.2266-1.9412-9.2266 8.375v5.1719c0 1.9084-1.5565 3.4668-3.4649 3.4668h-9.5703c-1.9084 0-3.4629 1.5558-3.4629 3.461v11.223c0 0.52815-0.12408 1.0314-0.33789 1.4787h11.393c2.1222 0 3.962-1.2946 4.7656-3.135v12.121c0 2.861 2.3384 5.2012 5.1993 5.2012h40.473c2.744 0 4.986-2.2432 4.986-4.9841v-16.303l8.0156-2.0058-8.0156-14.729v-5.7441c0-11.917-9.753-21.67-21.67-21.67zm-48.244 54.258c-2.8998 0-5.2656 2.3639-5.2656 5.2635v8.1916c0 2.8964 2.3658 5.2672 5.2656 5.2672h8.1875c2.8998 0 5.2676-2.3708 5.2676-5.2672v-8.1916c0-2.8995-2.3678-5.2635-5.2676-5.2635z" />
	</g>
</svg>